<svg width="122" height="50" viewBox="0 0 122 50" fill="none" xmlns="http://www.w3.org/2000/svg">
<path d="M24.0296 26.5799C23.7395 25.2204 23.0053 23.9962 21.9428 23.1001C20.8802 22.2041 19.5497 21.6872 18.161 21.631C16.7633 21.6829 15.4221 22.1967 14.3474 23.0922C13.2728 23.9877 12.5252 25.2142 12.2218 26.5799H24.0296ZM26.931 31.9189C25.6587 35.8073 22.546 37.9998 18.3399 37.9998C17.0988 38.0018 15.8698 37.7559 14.7249 37.2766C13.58 36.7973 12.5424 36.0943 11.6726 35.2087C10.8029 34.3231 10.1187 33.2728 9.66011 32.1193C9.2015 30.9659 8.9777 29.7324 9.00184 28.4913C8.95268 26.008 9.88859 23.6062 11.605 21.8112C13.3213 20.0161 15.6785 18.9738 18.161 18.9121C22.8654 18.9121 27.3909 22.8005 27.3534 29.2664H12.0438C12.1411 30.8781 12.8441 32.3933 14.0119 33.5081C15.1797 34.6229 16.7257 35.2546 18.3399 35.2766C19.4755 35.3319 20.6011 35.0403 21.5672 34.4405C22.5332 33.8408 23.294 32.9613 23.7485 31.9189H26.9319H26.931Z" fill="#0C183B"/>
<path d="M32.4311 30.7652L27.7599 37.8699H24.0835L30.5899 28.4688L24.5059 19.6689H28.1866L32.4302 26.1723L36.6705 19.6689H40.3512L34.2331 28.4688L40.7727 37.8691H37.0971L32.4311 30.7652Z" fill="#0C183B"/>
<path d="M47.1179 37.9952C42.4842 37.9952 39.0573 35.5582 38.4893 31.6323H43.226C43.8647 33.1868 45.7374 33.755 47.1136 33.755C48.9872 33.755 50.4 33.1911 50.4 32.1306C50.4 31.1085 49.7613 30.6826 46.5831 30.1869C43.3299 29.6937 38.9823 28.8112 38.9823 24.7448C38.9823 21.8802 41.4938 18.9126 46.7619 18.9126C50.9348 18.9126 54.0484 21.1758 54.6488 24.6034H49.8073C49.5254 23.7516 48.4975 23.0821 46.7653 23.0821C44.6107 23.0821 43.7233 23.8615 43.7233 24.5301C43.7233 25.4833 45.0663 25.8027 47.3291 26.1545C51.8546 26.8964 55.1086 27.887 55.1086 31.8453C55.1137 35.4466 51.7873 37.9918 47.123 37.9918" fill="#0C183B"/>
<path d="M68.4741 26.4795C68.2232 25.4678 67.6338 24.5723 66.8037 23.942C65.9736 23.3117 64.9529 22.9843 63.9112 23.0144C62.886 23.0172 61.8905 23.3584 61.079 23.9849C60.2675 24.6114 59.6854 25.4883 59.4231 26.4795H68.4741ZM59.3524 30.2921C59.5876 31.3236 60.1684 32.2437 60.9984 32.8997C61.8284 33.5557 62.8576 33.9081 63.9154 33.8986C64.6907 33.9322 65.4603 33.7519 66.1401 33.3776C66.8199 33.0032 67.3837 32.4491 67.7699 31.7759H72.7552C71.6941 35.4854 68.4784 37.9939 63.9529 37.9939C61.4571 37.9412 59.0813 36.9125 57.3349 35.1285C55.5884 33.3444 54.6104 30.9469 54.6104 28.4501C54.6104 25.9533 55.5884 23.5558 57.3349 21.7717C59.0813 19.9877 61.4571 18.959 63.9529 18.9062C69.3283 18.9062 73.784 23.08 73.1121 30.2836H59.3524V30.2921Z" fill="#0C183B"/>
<path d="M86.5069 26.4795C86.2559 25.4678 85.6665 24.5723 84.8364 23.942C84.0064 23.3117 82.9857 22.9843 81.9439 23.0144C80.9183 23.0177 79.9223 23.3589 79.1101 23.9853C78.2979 24.6116 77.7147 25.4882 77.4507 26.4795H86.5069ZM77.3851 30.2921C77.6204 31.3236 78.2011 32.2437 79.0311 32.8997C79.8611 33.5557 80.8903 33.9081 81.9481 33.8986C82.7234 33.9322 83.493 33.7519 84.1728 33.3776C84.8526 33.0032 85.4164 32.4491 85.8026 31.7759H90.788C89.7269 35.4854 86.5111 37.9939 81.9856 37.9939C79.4898 37.9412 77.114 36.9125 75.3676 35.1285C73.6211 33.3444 72.6431 30.9469 72.6431 28.4501C72.6431 25.9533 73.6211 23.5558 75.3676 21.7717C77.114 19.9877 79.4898 18.959 81.9856 18.9062C87.3611 18.9062 91.8167 23.08 91.1448 30.2836H77.3851V30.2921Z" fill="#0C183B"/>
<path d="M105.86 35.0741C104.935 34.7174 104.189 34.0083 103.785 33.1022C103.738 33.017 103.677 32.9046 103.649 32.8577C103.55 32.7665 103.44 32.6891 103.32 32.6277C103.208 32.6797 103.043 32.7777 102.921 32.8483C102.75 32.9472 102.56 33.0596 102.353 33.1584C101.327 33.702 100.151 33.8938 99.0063 33.7043C97.8612 33.5148 96.81 32.9544 96.0142 32.1094C95.2184 31.2643 94.722 30.1812 94.6013 29.0266C94.4806 27.872 94.7423 26.7097 95.3462 25.7183C95.95 24.7268 96.8627 23.9612 97.9438 23.5388C99.025 23.1165 100.215 23.061 101.331 23.3807C102.446 23.7004 103.426 24.3778 104.12 25.3086C104.814 26.2395 105.182 27.3723 105.17 28.5332C105.174 28.9463 105.396 29.172 106.043 29.6507C106.16 29.7359 106.282 29.8288 106.404 29.9233C106.749 30.2209 107.038 30.5787 107.255 30.9795C107.731 30.655 108.276 30.4458 108.847 30.3688C108.962 29.7493 109.019 29.1206 109.017 28.4906C109.017 28.293 109.012 28.1005 108.999 27.908V12H104.698V20.3399C103.244 19.4058 101.553 18.9102 99.8251 18.9123C98.5921 18.9294 97.375 19.192 96.2447 19.6849C95.1144 20.1777 94.0935 20.8908 93.2418 21.7826C92.3901 22.6744 91.7245 23.7269 91.284 24.8788C90.8435 26.0307 90.6368 27.2588 90.6761 28.4915C90.6379 29.7213 90.8461 30.9463 91.2885 32.0944C91.7309 33.2425 92.3985 34.2904 93.252 35.1765C94.1056 36.0626 95.1277 36.7688 96.2583 37.2537C97.3889 37.7387 98.6051 37.9924 99.8353 38C101.06 38.0035 102.272 37.7586 103.399 37.28C104.527 36.8014 105.545 36.099 106.393 35.2155C106.213 35.1818 106.035 35.1349 105.862 35.0749" fill="#0C183B"/>
<path d="M112.441 33.9385C112.029 33.7664 111.678 33.4755 111.432 33.1029C111.088 32.6057 110.587 32.2386 110.01 32.0603C109.668 31.9268 109.297 31.8869 108.934 31.9447C108.572 32.0025 108.232 32.1559 107.949 32.3891C107.418 32.7409 107.127 32.8304 106.714 32.6898C106.249 32.5305 105.987 31.5765 105.479 31.1685C104.878 30.6847 103.704 30.0791 103.695 28.6327C103.709 27.7891 103.444 26.9645 102.943 26.2861C102.441 25.6077 101.73 25.1133 100.92 24.8793C100.109 24.6452 99.2444 24.6846 98.4585 24.9912C97.6727 25.2979 97.0096 25.8548 96.5717 26.5759C96.1338 27.297 95.9455 28.1423 96.0357 28.9812C96.126 29.8201 96.4899 30.6059 97.0712 31.2173C97.6525 31.8287 98.4189 32.2317 99.252 32.3641C100.085 32.4964 100.939 32.3508 101.681 31.9496C102.267 31.6728 102.859 31.1515 103.488 31.2409C104.015 31.3747 104.485 31.6731 104.831 32.0927C105.164 32.5578 105.399 33.4683 106.329 33.7878C106.707 33.8882 107.105 33.8941 107.486 33.805C107.868 33.7159 108.222 33.5345 108.517 33.2767C108.888 32.9833 109.355 32.8393 109.826 32.8729C110.043 32.8835 110.255 32.9367 110.451 33.0293C110.647 33.122 110.822 33.2524 110.968 33.413C111.329 33.804 111.757 34.1284 112.231 34.3712C112.494 34.4982 112.808 34.5075 112.883 34.3287C112.944 34.183 112.78 34.0612 112.437 33.9343" fill="#0C183B"/>
</svg>
