<svg width="122" height="50" viewBox="0 0 122 50" fill="none" xmlns="http://www.w3.org/2000/svg">
<path d="M13.7744 10.157C9.8999 10.9171 6.81011 13.8374 6.09897 18.0061C5.75566 19.9189 6.31967 22.4937 7.5703 24.9214C8.89449 27.4962 9.2378 27.8395 10.8808 27.9376C11.9107 28.0111 12.3276 27.9621 12.4011 27.7169C12.4747 27.5207 12.769 25.2647 13.0387 22.6653C13.9951 13.5186 14.1913 13.5431 14.6572 22.7389C14.7553 24.4309 14.8534 25.9758 14.9024 26.172C14.9269 26.3682 14.976 27.0057 14.976 27.5943C15.0005 29.0901 15.3928 28.6732 15.589 26.9322C15.6871 26.1229 15.8588 25.3873 15.9814 25.3137C16.1285 25.2401 16.4963 25.7796 16.8151 26.5153L17.4282 27.8885H21.9157C24.3924 27.8885 26.6485 27.9621 26.9427 28.0357C27.3106 28.1337 27.5068 28.0602 27.6048 27.7169C27.7275 27.3 28.3405 21.8316 28.6348 18.8154C29.0271 14.4749 29.3214 14.9654 29.6892 20.4583C30.2777 29.6051 30.4004 30.2917 30.8172 26.5889C31.0134 24.8478 31.3567 24.8478 32.0433 26.6134L32.5338 27.8885H35.8688C39.6452 27.8885 39.4245 27.9866 40.7242 25.657C43.5442 20.63 43.2009 16.2384 39.7923 12.8544C37.7325 10.77 34.6182 9.66651 32.1169 10.1324C28.5367 10.819 25.2262 13.4695 24.5641 16.7065C24.4415 17.4176 24.3924 17.3931 23.8775 15.9463C22.3571 11.753 17.796 9.34772 13.7744 10.157Z" fill="#BB242E"/>
<path d="M13.7009 21.8292C13.6028 21.9027 13.5292 22.4422 13.5292 23.0062C13.5292 24.453 13.0143 28.0823 12.7445 28.5973C12.5483 28.9896 12.3276 29.0141 11.1506 28.867L9.77734 28.6954L10.2923 29.431C12.1315 32.0058 17.3301 36.7631 21.8177 39.9755L24.3189 41.7656L26.575 40.1717C30.1307 37.6459 33.4657 34.8014 36.2367 31.8587C37.6344 30.3874 38.787 29.0877 38.787 28.9651C38.787 28.867 37.2911 28.7689 35.4765 28.7689C32.1905 28.7689 32.1415 28.7689 31.9208 28.1804C31.4794 27.0033 31.2587 27.3712 30.8418 30.0441C30.1797 34.4335 30.0326 34.1393 29.6157 28.0087C29.4441 25.3849 29.346 22.8836 29.395 22.4422C29.4686 21.8782 29.4195 21.6575 29.1498 21.6575C28.88 21.6575 28.7574 22.197 28.6348 23.9135C28.2915 28.6463 28.1199 29.1368 26.8202 28.9161C26.3052 28.8425 23.9021 28.7689 21.4253 28.7689H16.9378L16.668 28.0087C16.3002 26.9788 16.104 27.3466 15.7362 29.6272C15.3193 32.3246 15.2212 32.7905 15.0986 32.9132C14.8534 33.1584 14.7798 32.6925 14.6327 30.6081C14.3139 25.8017 13.9951 21.8046 13.9216 21.7311C13.8971 21.682 13.7744 21.7311 13.7009 21.8292Z" fill="#BB242E"/>
<path d="M50.261 22.4481C49.5677 22.4481 48.9377 22.2832 48.3712 21.9535C47.8047 21.6237 47.3524 21.1418 47.0142 20.5076C46.6844 19.865 46.5195 19.0871 46.5195 18.174C46.5195 17.2693 46.6886 16.4956 47.0268 15.853C47.3735 15.2019 47.8343 14.7073 48.4093 14.3691C48.9842 14.0224 49.6184 13.8491 50.3117 13.8491C50.836 13.8491 51.301 13.9548 51.7068 14.1662C52.1127 14.3775 52.4467 14.6227 52.7088 14.9018L51.9225 15.853C51.7111 15.6332 51.4743 15.4598 51.2122 15.333C50.9586 15.1977 50.6711 15.1301 50.3498 15.1301C49.9016 15.1301 49.5 15.2527 49.1449 15.4979C48.7982 15.7346 48.5234 16.0771 48.3205 16.5252C48.126 16.9733 48.0288 17.5102 48.0288 18.1359C48.0288 19.0829 48.236 19.827 48.6503 20.3681C49.0646 20.9008 49.6184 21.1671 50.3117 21.1671C50.6838 21.1671 51.0135 21.091 51.301 20.9388C51.5885 20.7782 51.8506 20.571 52.0873 20.3174L52.8737 21.2432C52.5355 21.6322 52.1465 21.9323 51.7068 22.1437C51.2756 22.3466 50.7937 22.4481 50.261 22.4481Z" fill="black"/>
<path d="M55.6407 22.4481C55.0996 22.4481 54.6557 22.279 54.309 21.9408C53.9708 21.6026 53.8017 21.1629 53.8017 20.6218C53.8017 19.9538 54.0934 19.438 54.6768 19.0745C55.2602 18.7024 56.1903 18.4488 57.4671 18.3135C57.4586 17.9837 57.3698 17.7005 57.2007 17.4637C57.0401 17.2185 56.7484 17.0959 56.3256 17.0959C56.0212 17.0959 55.7211 17.1551 55.4251 17.2735C55.1376 17.3919 54.8544 17.5356 54.5754 17.7047L54.0427 16.7281C54.3894 16.5083 54.7783 16.318 55.2095 16.1574C55.6492 15.9967 56.1142 15.9164 56.6046 15.9164C57.3825 15.9164 57.9617 16.1489 58.3422 16.614C58.7311 17.0706 58.9256 17.7343 58.9256 18.6052V22.2959H57.7207L57.6193 21.611H57.5685C57.2895 21.8478 56.9894 22.0465 56.6681 22.2071C56.3552 22.3678 56.0128 22.4481 55.6407 22.4481ZM56.11 21.3066C56.3637 21.3066 56.592 21.2475 56.7949 21.1291C57.0063 21.0023 57.2303 20.8332 57.4671 20.6218V19.2266C56.6215 19.3366 56.0339 19.5014 55.7041 19.7213C55.3744 19.9327 55.2095 20.1948 55.2095 20.5076C55.2095 20.7866 55.2941 20.9896 55.4632 21.1164C55.6323 21.2432 55.8479 21.3066 56.11 21.3066Z" fill="black"/>
<path d="M60.6711 22.2959V16.0686H61.876L61.9774 17.172H62.0282C62.248 16.7662 62.5144 16.4575 62.8272 16.2462C63.14 16.0263 63.4613 15.9164 63.7911 15.9164C64.087 15.9164 64.3238 15.9587 64.5013 16.0432L64.2477 17.3115C64.1378 17.2777 64.0363 17.2523 63.9433 17.2354C63.8503 17.2185 63.7361 17.2101 63.6009 17.2101C63.3557 17.2101 63.0978 17.3073 62.8272 17.5018C62.5566 17.6878 62.3241 18.0175 62.1296 18.491V22.2959H60.6711Z" fill="black"/>
<path d="M67.46 22.4481C66.6821 22.4481 66.0607 22.1606 65.5956 21.5857C65.1306 21.0107 64.8981 20.2117 64.8981 19.1886C64.8981 18.5122 65.0207 17.9288 65.2659 17.4384C65.5195 16.948 65.8493 16.5717 66.2552 16.3096C66.661 16.0475 67.088 15.9164 67.5361 15.9164C67.8913 15.9164 68.1914 15.9798 68.4366 16.1066C68.6903 16.225 68.9355 16.3899 69.1722 16.6013L69.1215 15.5993V13.3418H70.58V22.2959H69.3752L69.2737 21.6237H69.223C68.9947 21.852 68.7283 22.0465 68.4239 22.2071C68.1195 22.3678 67.7982 22.4481 67.46 22.4481ZM67.8152 21.2432C68.2802 21.2432 68.7156 21.0107 69.1215 20.5457V17.6413C68.9101 17.4468 68.6987 17.3115 68.4873 17.2354C68.276 17.1593 68.0646 17.1213 67.8532 17.1213C67.4558 17.1213 67.1134 17.3031 66.8259 17.6666C66.5469 18.0218 66.4073 18.5249 66.4073 19.1759C66.4073 19.8439 66.53 20.3554 66.7752 20.7106C67.0204 21.0657 67.367 21.2432 67.8152 21.2432Z" fill="black"/>
<path d="M72.4375 22.2959V16.0686H73.896V22.2959H72.4375ZM73.1731 14.9779C72.911 14.9779 72.6996 14.9018 72.5389 14.7496C72.3783 14.5974 72.298 14.3945 72.298 14.1408C72.298 13.8956 72.3783 13.6969 72.5389 13.5447C72.6996 13.3925 72.911 13.3164 73.1731 13.3164C73.4352 13.3164 73.6466 13.3925 73.8072 13.5447C73.9679 13.6969 74.0482 13.8956 74.0482 14.1408C74.0482 14.3945 73.9679 14.5974 73.8072 14.7496C73.6466 14.9018 73.4352 14.9779 73.1731 14.9779Z" fill="black"/>
<path d="M78.3061 22.4481C77.7903 22.4481 77.3084 22.3213 76.8603 22.0676C76.4121 21.8055 76.0486 21.4335 75.7695 20.9515C75.4905 20.4611 75.351 19.8735 75.351 19.1886C75.351 18.4953 75.4905 17.9076 75.7695 17.4257C76.0486 16.9353 76.4121 16.5632 76.8603 16.3096C77.3084 16.0475 77.7903 15.9164 78.3061 15.9164C78.8303 15.9164 79.3165 16.0475 79.7647 16.3096C80.2128 16.5632 80.5764 16.9353 80.8554 17.4257C81.1344 17.9076 81.2739 18.4953 81.2739 19.1886C81.2739 19.8735 81.1344 20.4611 80.8554 20.9515C80.5764 21.4335 80.2128 21.8055 79.7647 22.0676C79.3165 22.3213 78.8303 22.4481 78.3061 22.4481ZM78.3061 21.2559C78.7627 21.2559 79.122 21.0657 79.3842 20.6852C79.6463 20.3047 79.7773 19.8058 79.7773 19.1886C79.7773 18.5629 79.6463 18.0598 79.3842 17.6793C79.122 17.2988 78.7627 17.1086 78.3061 17.1086C77.8495 17.1086 77.4902 17.2988 77.2281 17.6793C76.9744 18.0598 76.8476 18.5629 76.8476 19.1886C76.8476 19.8058 76.9744 20.3047 77.2281 20.6852C77.4902 21.0657 77.8495 21.2559 78.3061 21.2559Z" fill="black"/>
<path d="M82.8444 22.2959V14.0013H85.6474C86.2223 14.0013 86.7381 14.0774 87.1947 14.2296C87.6597 14.3818 88.0233 14.6397 88.2854 15.0032C88.556 15.3584 88.6913 15.8445 88.6913 16.4618C88.6913 17.0959 88.5391 17.6075 88.2347 17.9964C87.9387 18.3853 87.5413 18.6644 87.0425 18.8335L89.021 22.2959H87.3722L85.5839 19.0491H84.3156V22.2959H82.8444ZM84.3156 17.8823H85.4952C86.0617 17.8823 86.4929 17.7639 86.7888 17.5271C87.0932 17.2819 87.2454 16.9268 87.2454 16.4618C87.2454 15.9883 87.0932 15.6585 86.7888 15.4725C86.4929 15.278 86.0617 15.1808 85.4952 15.1808H84.3156V17.8823Z" fill="black"/>
<path d="M90.2233 22.2959V16.0686H91.6818V22.2959H90.2233ZM90.9589 14.9779C90.6968 14.9779 90.4854 14.9018 90.3248 14.7496C90.1641 14.5974 90.0838 14.3945 90.0838 14.1408C90.0838 13.8956 90.1641 13.6969 90.3248 13.5447C90.4854 13.3925 90.6968 13.3164 90.9589 13.3164C91.221 13.3164 91.4324 13.3925 91.5931 13.5447C91.7537 13.6969 91.834 13.8956 91.834 14.1408C91.834 14.3945 91.7537 14.5974 91.5931 14.7496C91.4324 14.9018 91.221 14.9779 90.9589 14.9779Z" fill="black"/>
<path d="M95.2802 22.4481C94.8575 22.4481 94.4347 22.3678 94.0119 22.2071C93.5892 22.038 93.2256 21.8309 92.9212 21.5857L93.6061 20.6471C93.8851 20.8585 94.1641 21.0276 94.4432 21.1545C94.7222 21.2813 95.0181 21.3447 95.331 21.3447C95.6692 21.3447 95.9186 21.2728 96.0793 21.1291C96.2399 20.9853 96.3202 20.8078 96.3202 20.5964C96.3202 20.4188 96.2526 20.2751 96.1173 20.1652C95.9905 20.0468 95.8256 19.9453 95.6227 19.8608C95.4197 19.7678 95.2084 19.679 94.9885 19.5945C94.718 19.493 94.4474 19.3704 94.1768 19.2266C93.9147 19.0745 93.6991 18.8842 93.53 18.6559C93.3609 18.4192 93.2763 18.1275 93.2763 17.7808C93.2763 17.2312 93.4793 16.7831 93.8851 16.4364C94.291 16.0897 94.8406 15.9164 95.5339 15.9164C95.9736 15.9164 96.3667 15.9925 96.7134 16.1447C97.0601 16.2969 97.3602 16.4702 97.6139 16.6647L96.9417 17.5525C96.7219 17.3919 96.4978 17.265 96.2695 17.172C96.0497 17.0706 95.8171 17.0198 95.5719 17.0198C95.2591 17.0198 95.0266 17.0875 94.8744 17.2227C94.7222 17.3496 94.6461 17.5102 94.6461 17.7047C94.6461 17.9499 94.7729 18.1359 95.0266 18.2627C95.2802 18.3896 95.5762 18.5122 95.9144 18.6306C96.2019 18.732 96.4809 18.8588 96.7514 19.011C97.022 19.1548 97.2461 19.345 97.4236 19.5818C97.6097 19.8185 97.7027 20.1314 97.7027 20.5203C97.7027 21.053 97.4955 21.5096 97.0812 21.8901C96.6669 22.2621 96.0666 22.4481 95.2802 22.4481Z" fill="black"/>
<path d="M99.0047 22.2959V13.3418H100.438V18.9349H100.476L102.784 16.0686H104.382L102.252 18.6052L104.598 22.2959H103.013L101.415 19.5945L100.438 20.7106V22.2959H99.0047Z" fill="black"/>
<path d="M46.9508 38.2959V30.0013H48.422V37.053H51.8717V38.2959H46.9508Z" fill="black"/>
<path d="M54.6994 38.4481C54.1583 38.4481 53.7144 38.279 53.3677 37.9408C53.0295 37.6026 52.8604 37.1629 52.8604 36.6218C52.8604 35.9538 53.1521 35.438 53.7355 35.0745C54.3189 34.7024 55.249 34.4488 56.5258 34.3135C56.5173 33.9837 56.4285 33.7005 56.2594 33.4637C56.0988 33.2185 55.8071 33.0959 55.3843 33.0959C55.0799 33.0959 54.7797 33.1551 54.4838 33.2735C54.1963 33.3919 53.9131 33.5356 53.6341 33.7047L53.1014 32.7281C53.448 32.5083 53.837 32.318 54.2682 32.1574C54.7079 31.9967 55.1729 31.9164 55.6633 31.9164C56.4412 31.9164 57.0204 32.1489 57.4009 32.614C57.7898 33.0706 57.9843 33.7343 57.9843 34.6052V38.2959H56.7794L56.678 37.611H56.6272C56.3482 37.8478 56.048 38.0465 55.7267 38.2071C55.4139 38.3678 55.0715 38.4481 54.6994 38.4481ZM55.1687 37.3067C55.4224 37.3067 55.6506 37.2475 55.8536 37.1291C56.065 37.0023 56.289 36.8332 56.5258 36.6218V35.2267C55.6802 35.3366 55.0926 35.5014 54.7628 35.7213C54.4331 35.9327 54.2682 36.1948 54.2682 36.5076C54.2682 36.7866 54.3528 36.9896 54.5219 37.1164C54.691 37.2432 54.9066 37.3067 55.1687 37.3067Z" fill="black"/>
<path d="M62.7483 38.4481C62.1565 38.4481 61.59 38.1775 61.0488 37.6364H61.0108L60.8839 38.2959H59.7298V29.3418H61.1883V31.6501L61.1503 32.6901C61.4124 32.4618 61.6999 32.2758 62.0127 32.132C62.3256 31.9883 62.6384 31.9164 62.9513 31.9164C63.7291 31.9164 64.3337 32.2039 64.7649 32.7788C65.1961 33.3538 65.4117 34.119 65.4117 35.0745C65.4117 35.7847 65.2849 36.3935 65.0313 36.9008C64.7776 37.3997 64.4478 37.7844 64.042 38.0549C63.6446 38.3171 63.2134 38.4481 62.7483 38.4481ZM62.4439 37.2432C62.8582 37.2432 63.2049 37.0614 63.4839 36.6979C63.763 36.3343 63.9025 35.8016 63.9025 35.0998C63.9025 34.4741 63.7968 33.9879 63.5854 33.6413C63.374 33.2946 63.0316 33.1213 62.5581 33.1213C62.1184 33.1213 61.6618 33.3538 61.1883 33.8188V36.7232C61.4082 36.9093 61.6238 37.0445 61.8352 37.1291C62.055 37.2052 62.2579 37.2432 62.4439 37.2432Z" fill="black"/>
<path d="M69.4256 38.4481C68.9098 38.4481 68.4279 38.3213 67.9797 38.0676C67.5316 37.8055 67.168 37.4335 66.889 36.9515C66.61 36.4611 66.4705 35.8735 66.4705 35.1886C66.4705 34.4953 66.61 33.9076 66.889 33.4257C67.168 32.9353 67.5316 32.5632 67.9797 32.3096C68.4279 32.0475 68.9098 31.9164 69.4256 31.9164C69.9498 31.9164 70.436 32.0475 70.8841 32.3096C71.3323 32.5632 71.6958 32.9353 71.9749 33.4257C72.2539 33.9076 72.3934 34.4953 72.3934 35.1886C72.3934 35.8735 72.2539 36.4611 71.9749 36.9515C71.6958 37.4335 71.3323 37.8055 70.8841 38.0676C70.436 38.3213 69.9498 38.4481 69.4256 38.4481ZM69.4256 37.2559C69.8822 37.2559 70.2415 37.0657 70.5036 36.6852C70.7658 36.3047 70.8968 35.8058 70.8968 35.1886C70.8968 34.5629 70.7658 34.0598 70.5036 33.6793C70.2415 33.2988 69.8822 33.1086 69.4256 33.1086C68.969 33.1086 68.6097 33.2988 68.3475 33.6793C68.0939 34.0598 67.9671 34.5629 67.9671 35.1886C67.9671 35.8058 68.0939 36.3047 68.3475 36.6852C68.6097 37.0657 68.969 37.2559 69.4256 37.2559Z" fill="black"/>
<path d="M73.8371 38.2959V32.0686H75.0419L75.1434 33.172H75.1941C75.414 32.7662 75.6803 32.4575 75.9932 32.2462C76.306 32.0263 76.6273 31.9164 76.9571 31.9164C77.253 31.9164 77.4897 31.9587 77.6673 32.0432L77.4137 33.3115C77.3037 33.2777 77.2023 33.2523 77.1093 33.2354C77.0163 33.2185 76.9021 33.2101 76.7668 33.2101C76.5216 33.2101 76.2637 33.3073 75.9932 33.5018C75.7226 33.6878 75.4901 34.0175 75.2956 34.491V38.2959H73.8371Z" fill="black"/>
<path d="M79.7432 38.4481C79.2021 38.4481 78.7582 38.279 78.4115 37.9408C78.0733 37.6026 77.9042 37.1629 77.9042 36.6218C77.9042 35.9538 78.1959 35.438 78.7793 35.0745C79.3628 34.7024 80.2928 34.4488 81.5696 34.3135C81.5611 33.9837 81.4724 33.7005 81.3032 33.4637C81.1426 33.2185 80.8509 33.0959 80.4281 33.0959C80.1237 33.0959 79.8236 33.1551 79.5276 33.2735C79.2402 33.3919 78.9569 33.5356 78.6779 33.7047L78.1452 32.7281C78.4919 32.5083 78.8808 32.318 79.312 32.1574C79.7517 31.9967 80.2167 31.9164 80.7071 31.9164C81.485 31.9164 82.0642 32.1489 82.4447 32.614C82.8337 33.0706 83.0281 33.7343 83.0281 34.6052V38.2959H81.8232L81.7218 37.611H81.6711C81.392 37.8478 81.0919 38.0465 80.7706 38.2071C80.4577 38.3678 80.1153 38.4481 79.7432 38.4481ZM80.2125 37.3067C80.4662 37.3067 80.6945 37.2475 80.8974 37.1291C81.1088 37.0023 81.3328 36.8332 81.5696 36.6218V35.2267C80.7241 35.3366 80.1364 35.5014 79.8067 35.7213C79.4769 35.9327 79.312 36.1948 79.312 36.5076C79.312 36.7866 79.3966 36.9896 79.5657 37.1164C79.7348 37.2432 79.9504 37.3067 80.2125 37.3067Z" fill="black"/>
<path d="M86.7696 38.4481C86.0509 38.4481 85.5393 38.241 85.235 37.8267C84.939 37.4039 84.7911 36.8585 84.7911 36.1906V33.2227H83.9032V32.132L84.8671 32.0686L85.0447 30.3691H86.2623V32.0686H87.8476V33.2227H86.2623V36.1906C86.2623 36.9177 86.554 37.2813 87.1374 37.2813C87.2473 37.2813 87.3615 37.2686 87.4798 37.2432C87.5982 37.2094 87.6997 37.1756 87.7842 37.1418L88.0379 38.2198C87.8688 38.279 87.6743 38.3297 87.4545 38.372C87.2431 38.4227 87.0148 38.4481 86.7696 38.4481Z" fill="black"/>
<path d="M91.5092 38.4481C90.9935 38.4481 90.5115 38.3213 90.0634 38.0676C89.6153 37.8055 89.2517 37.4335 88.9727 36.9515C88.6936 36.4611 88.5541 35.8735 88.5541 35.1886C88.5541 34.4953 88.6936 33.9076 88.9727 33.4257C89.2517 32.9353 89.6153 32.5632 90.0634 32.3096C90.5115 32.0475 90.9935 31.9164 91.5092 31.9164C92.0335 31.9164 92.5196 32.0475 92.9678 32.3096C93.4159 32.5632 93.7795 32.9353 94.0585 33.4257C94.3375 33.9076 94.477 34.4953 94.477 35.1886C94.477 35.8735 94.3375 36.4611 94.0585 36.9515C93.7795 37.4335 93.4159 37.8055 92.9678 38.0676C92.5196 38.3213 92.0335 38.4481 91.5092 38.4481ZM91.5092 37.2559C91.9658 37.2559 92.3252 37.0657 92.5873 36.6852C92.8494 36.3047 92.9805 35.8058 92.9805 35.1886C92.9805 34.5629 92.8494 34.0598 92.5873 33.6793C92.3252 33.2988 91.9658 33.1086 91.5092 33.1086C91.0527 33.1086 90.6933 33.2988 90.4312 33.6793C90.1775 34.0598 90.0507 34.5629 90.0507 35.1886C90.0507 35.8058 90.1775 36.3047 90.4312 36.6852C90.6933 37.0657 91.0527 37.2559 91.5092 37.2559Z" fill="black"/>
<path d="M95.9207 38.2959V32.0686H97.1256L97.2271 33.172H97.2778C97.4976 32.7662 97.764 32.4575 98.0768 32.2462C98.3897 32.0263 98.711 31.9164 99.0407 31.9164C99.3367 31.9164 99.5734 31.9587 99.751 32.0432L99.4973 33.3115C99.3874 33.2777 99.2859 33.2523 99.1929 33.2354C99.0999 33.2185 98.9858 33.2101 98.8505 33.2101C98.6053 33.2101 98.3474 33.3073 98.0768 33.5018C97.8062 33.6878 97.5737 34.0175 97.3793 34.491V38.2959H95.9207Z" fill="black"/>
<path d="M100.652 38.2959V32.0686H102.111V38.2959H100.652ZM101.388 30.9779C101.126 30.9779 100.914 30.9018 100.754 30.7496C100.593 30.5974 100.513 30.3945 100.513 30.1408C100.513 29.8956 100.593 29.6969 100.754 29.5447C100.914 29.3925 101.126 29.3164 101.388 29.3164C101.65 29.3164 101.861 29.3925 102.022 29.5447C102.182 29.6969 102.263 29.8956 102.263 30.1408C102.263 30.3945 102.182 30.5974 102.022 30.7496C101.861 30.9018 101.65 30.9779 101.388 30.9779Z" fill="black"/>
<path d="M106.635 38.4481C106.06 38.4481 105.54 38.3213 105.075 38.0676C104.61 37.8055 104.242 37.4335 103.971 36.9515C103.701 36.4611 103.566 35.8735 103.566 35.1886C103.566 34.5122 103.701 33.9288 103.971 33.4384C104.25 32.9479 104.61 32.5717 105.049 32.3096C105.489 32.0475 105.95 31.9164 106.432 31.9164C106.998 31.9164 107.472 32.0432 107.852 32.2969C108.233 32.5421 108.52 32.8888 108.715 33.3369C108.909 33.7766 109.007 34.2881 109.007 34.8715C109.007 35.1759 108.985 35.4127 108.943 35.5818H104.986C105.054 36.1314 105.252 36.5584 105.582 36.8627C105.912 37.1671 106.326 37.3193 106.825 37.3193C107.096 37.3193 107.345 37.2813 107.573 37.2052C107.81 37.1206 108.043 37.0065 108.271 36.8627L108.766 37.7759C108.47 37.9704 108.14 38.131 107.776 38.2579C107.413 38.3847 107.032 38.4481 106.635 38.4481ZM104.973 34.5925H107.738C107.738 34.1106 107.633 33.7343 107.421 33.4637C107.21 33.1847 106.893 33.0452 106.47 33.0452C106.106 33.0452 105.781 33.1805 105.493 33.451C105.214 33.7132 105.041 34.0936 104.973 34.5925Z" fill="black"/>
<path d="M112.137 38.4481C111.714 38.4481 111.292 38.3678 110.869 38.2071C110.446 38.038 110.082 37.8309 109.778 37.5857L110.463 36.6471C110.742 36.8585 111.021 37.0276 111.3 37.1545C111.579 37.2813 111.875 37.3447 112.188 37.3447C112.526 37.3447 112.775 37.2728 112.936 37.1291C113.097 36.9853 113.177 36.8078 113.177 36.5964C113.177 36.4188 113.109 36.2751 112.974 36.1652C112.847 36.0468 112.682 35.9453 112.48 35.8608C112.277 35.7678 112.065 35.679 111.845 35.5945C111.575 35.493 111.304 35.3704 111.034 35.2267C110.772 35.0745 110.556 34.8842 110.387 34.6559C110.218 34.4192 110.133 34.1275 110.133 33.7808C110.133 33.2312 110.336 32.7831 110.742 32.4364C111.148 32.0897 111.697 31.9164 112.391 31.9164C112.83 31.9164 113.224 31.9925 113.57 32.1447C113.917 32.2969 114.217 32.4702 114.471 32.6647L113.799 33.5525C113.579 33.3919 113.355 33.265 113.126 33.172C112.907 33.0706 112.674 33.0198 112.429 33.0198C112.116 33.0198 111.883 33.0875 111.731 33.2227C111.579 33.3496 111.503 33.5102 111.503 33.7047C111.503 33.9499 111.63 34.1359 111.883 34.2627C112.137 34.3896 112.433 34.5122 112.771 34.6306C113.059 34.732 113.338 34.8588 113.608 35.011C113.879 35.1548 114.103 35.345 114.281 35.5818C114.467 35.8185 114.56 36.1314 114.56 36.5203C114.56 37.053 114.352 37.5096 113.938 37.8901C113.524 38.2621 112.923 38.4481 112.137 38.4481Z" fill="black"/>
</svg>
