<svg id="Layer_1" data-name="Layer 1" xmlns="http://www.w3.org/2000/svg" viewBox="0 0 257 220"><defs><style>.cls-1{fill:#bfc1cb;}</style></defs><title>dig_two_icn</title><path class="cls-1" d="M143,0a109.9,109.9,0,0,0-88.5,44.76H57a108,108,0,1,1-4.35,124.29H51.36L50.19,169A110,110,0,1,0,143,0Z"/><path class="cls-1" d="M41.25,150.16C70.39,128,88.34,109.88,88.34,89.34c0-24.47-21.6-35.61-41.66-35.61-16.82,0-32.56,6.86-42.1,18.34L4,72.73,16.78,87.16l.75-.86C25,77.73,35.22,73.2,47,73.2c9.62,0,19.32,5,19.32,16.14,0,15.83-17.38,30.56-60.08,62.87l-.4.3v17H89V150.16ZM87,167.47H7.86v-14C50.83,121,68.34,106,68.34,89.34,68.34,76.81,57.63,71.2,47,71.2c-12,0-22.43,4.47-30.24,12.94L6.67,72.69c9.22-10.63,24.1-17,40-17,19.1,0,39.66,10.52,39.66,33.61,0,20.26-18.62,38.37-48.66,61l-2.39,1.8H87Z"/></svg>