<svg id="Layer_1" data-name="Layer 1" xmlns="http://www.w3.org/2000/svg" viewBox="0 0 257 220"><defs><style>.cls-1{fill:#bfc1cb;}</style></defs><title>dig_six_icn</title><path class="cls-1" d="M48.38,112.53c-9.65,0-19.36,5.25-25.34,13.69l-.22.31,0,.37c.62,6.36,4.32,27.11,26,27.11,14.71,0,23.51-10.42,23.51-20.49C72.4,120.77,63,112.53,48.38,112.53ZM48.89,152c-19.63,0-23.32-18.6-24-24.93,5.63-7.75,14.6-12.55,23.49-12.55,10.64,0,22,5,22,19C70.4,142.49,62.86,152,48.89,152Z"/><path class="cls-1" d="M53.76,95.73c-12.55,0-23.45,6.81-29.24,13.84v-.41c0-17.87,9.81-36,28.56-36,9.39,0,15.85,2.78,22.3,9.6l.89,1L86.61,67,86,66.45c-8.51-8.32-19.9-12.72-33-12.72-30.61,0-50.39,23.14-50.39,59,0,36.81,17.65,58.79,47.2,58.79,24.53,0,42.33-16.24,42.33-38.63C92.22,107.21,72.9,95.73,53.76,95.73Zm-3.87,73.75c-28.3,0-45.2-21.23-45.2-56.79,0-34.6,19-57,48.39-57,12.23,0,22.92,4,31,11.6L75.92,80.5c-6.57-6.59-13.28-9.3-22.84-9.3-20.06,0-30.56,19.1-30.56,38a20.24,20.24,0,0,0,.18,3.36l.41,2.49,1.41-2.1c5-7.54,16.68-15.18,29.24-15.18,18.15,0,36.46,10.86,36.46,35.12C90.22,154.08,73.26,169.48,49.89,169.48Z"/><path class="cls-1" d="M144.31,0A109.91,109.91,0,0,0,55,45.83H57.5a108,108,0,1,1-2.15,125.33H52.92A110,110,0,1,0,144.31,0Z"/></svg>