<svg id="Layer_1" data-name="Layer 1" xmlns="http://www.w3.org/2000/svg" viewBox="0 0 257 220"><defs><style>.cls-1{fill:#bfc1cb;}</style></defs><title>dig_five_icn</title><path class="cls-1" d="M53.66,93.72c-9.17,0-18.1,3.13-24.37,8.46V73H83.05V53.73H7.63v64.42l15.22,4.4.42-.4a32.64,32.64,0,0,1,23.84-9.47c13.06,0,21.51,7.46,21.51,19,0,11-9.05,18.66-22,18.66-12,0-21.91-4.35-29.49-12.93l-.77-.87L3.8,151.5l.54.64c9.89,11.72,24.16,17.66,42.43,17.66,26.12,0,43.67-15.66,43.67-39C90.44,106.47,71.94,93.72,53.66,93.72ZM46.77,167.8c-17.56,0-30.77-5.34-40.35-16.31l10-11.91c7.87,8.46,18,12.75,30.21,12.75,13.92,0,24-8.69,24-20.66,0-12.75-9.23-21-23.51-21a34.48,34.48,0,0,0-24.8,9.63L9.63,116.64V55.73H81.05V71H27.29v35.83l1.71-1.7c4.57-4.57,13.44-9.45,24.66-9.45,17.28,0,34.78,12.06,34.78,35.11C88.44,153,71.7,167.8,46.77,167.8Z"/><path class="cls-1" d="M143.2,0A109.94,109.94,0,0,0,54,45.73h2.48a108,108,0,1,1-3.91,122.92H50.18A110,110,0,1,0,143.2,0Z"/></svg>