<svg id="Layer_1" data-name="Layer 1" xmlns="http://www.w3.org/2000/svg" viewBox="0 0 257 220"><defs><style>.cls-1{fill:#bfc1cb;}</style></defs><title>dig_three_icn</title><path class="cls-1" d="M51.81,54l.26,0v0Z"/><path class="cls-1" d="M144.37,0A109.91,109.91,0,0,0,55,46h2.46a108,108,0,1,1-2.25,125c-.73.1-1.48.18-2.24.26A110,110,0,1,0,144.37,0Z"/><path class="cls-1" d="M55.22,170.9c20.78-2.79,34.19-15.35,34.19-33,0-16.12-12.24-24.67-22.29-27.36,10.62-3.4,20.6-12.15,20.6-25.56,0-17.47-13.8-29.24-35.65-31-.74-.06-1.48-.11-2.24-.14-1.18-.06-2.37-.1-3.59-.1-17,0-31.73,6.39-41.59,18l-.54.64L15.42,86.12l.78-.78c7.21-7.21,15.24-11.14,24.45-12,.71-.06,1.44-.1,2.16-.13.53,0,1,0,1.58,0,10,0,21.68,3.88,21.68,14.8,0,12.44-15.4,13.78-22,13.78-2.18,0-4.93,0-7.37,0l-2,0c-1.53,0-2.79-.06-3.48-.12l-1.08-.09v19.84l1.1-.11c.62-.07,2-.1,3.71-.13l2,0c2.36,0,5,0,7.11,0,16.06,0,23.87,4.84,23.87,14.8S59.56,152,45.57,152l-.7,0c-.74,0-1.47,0-2.2-.1-10.67-.76-21-5.64-27.43-13.14l-.77-.9L2.63,152.31l.47.63c8.71,11.61,24.83,18.54,43.14,18.54q3.48,0,6.74-.32C53.74,171.08,54.49,171,55.22,170.9Zm-9-1.42c-17.35,0-32.62-6.38-41.06-17.12l9.34-11.42c7,7.63,17.91,12.49,29,13,.68,0,1.35,0,2,0h.18c14.91-.06,24.17-7,24.17-18.13,0-11.3-8.46-16.8-25.87-16.8-2.27,0-4.93,0-7.29,0l-2,0c-1,0-1.93,0-2.63.07V103.67c.67,0,1.5,0,2.43.06l2,0c2.49,0,5.28,0,7.5,0,15,0,24-5.9,24-15.78,0-10.21-9.3-16.8-23.68-16.8l-.82,0c-.73,0-1.45,0-2.17.09-9.74.66-18.23,4.54-25.83,11.85L6.72,72.39c9.47-10.75,23.47-16.66,39.52-16.66.83,0,1.64,0,2.45.05s1.51.06,2.24.11C72.23,57.3,85.72,68.4,85.72,85c0,14.17-12.19,22.75-23.53,24.72L54.78,111l7.49.69c9.72.9,25.14,8.81,25.14,26.22,0,16.84-13.15,28.75-33.44,31.14-.73.09-1.48.16-2.24.22C50,169.4,48.12,169.48,46.24,169.48Z"/></svg>