<svg id="Layer_1" data-name="Layer 1" xmlns="http://www.w3.org/2000/svg" viewBox="0 0 257 220"><defs><style>.cls-1{fill:#bfc1cb;}</style></defs><title>dig_one_icn</title><path class="cls-1" d="M145.19,0A109.92,109.92,0,0,0,55.48,46.44h2.45A108,108,0,1,1,53.6,167.17l-2.39-.06.87,1.39A110,110,0,1,0,145.19,0Z"/><polygon class="cls-1" points="50.84 165.79 33.94 165.79 31.94 165.79 31.94 167.79 52.08 167.79 53.6 167.79 53.6 166.45 53.6 165.79 51.6 165.79 50.84 165.79"/><polygon class="cls-1" points="52.61 53.73 50.28 53.73 35.05 53.73 1.81 87.31 14.63 100.69 31.94 82.75 31.94 165.79 33.94 165.79 33.94 77.79 14.63 97.81 4.6 87.33 35.88 55.73 49.14 55.73 51.43 55.73 51.6 55.73 51.6 163.14 51.6 165.79 53.6 165.79 53.6 53.73 52.61 53.73"/></svg>