<svg id="Layer_1" data-name="Layer 1" xmlns="http://www.w3.org/2000/svg" viewBox="0 0 257 220"><defs><style>.cls-1{fill:#bfc1cb;}</style></defs><title>dig_four_icn</title><path class="cls-1" d="M55.43,125.12V69l-37,56.08Zm-2-2H22.18L53.43,75.71Z"/><path class="cls-1" d="M75.08,123.12V53.73H46.49L.17,125.08l-.17.25v17.09H53.43v25.37H75.08V142.42H90v-19.3Zm13,17.3h-15v25.37H55.43V140.42H2v-14.5L47.58,55.73h25.5v69.39H88Z"/><path class="cls-1" d="M147,0A109.94,109.94,0,0,0,57.78,45.73h2.47a108,108,0,1,1-4.46,122H53.43A110,110,0,1,0,147,0Z"/></svg>